Coordinates
version=1
nRows=14
nColumns=40
inDegrees=yes

Units are S.I. units (second, meters, Newtons, ...)
Angles are in degrees.

endheader
time	pelvis_tilt	pelvis_list	pelvis_rotation	pelvis_tx	pelvis_ty	pelvis_tz	hip_flexion_r	hip_adduction_r	hip_rotation_r	knee_angle_r	knee_angle_r_beta	ankle_angle_r	subtalar_angle_r	mtp_angle_r	hip_flexion_l	hip_adduction_l	hip_rotation_l	knee_angle_l	knee_angle_l_beta	ankle_angle_l	subtalar_angle_l	mtp_angle_l	lumbar_extension	lumbar_bending	lumbar_rotation	arm_flex_r	arm_add_r	arm_rot_r	elbow_flex_r	pro_sup_r	wrist_flex_r	wrist_dev_r	arm_flex_l	arm_add_l	arm_rot_l	elbow_flex_l	pro_sup_l	wrist_flex_l	wrist_dev_l
     48.70000000	     -3.71924509	     -4.97647176	      0.36197128	      1.14882019	      0.91735133	      0.47097731	     24.25589424	      0.50292239	    -14.84007908	     22.43099210	     22.43099210	      4.37000242	     -2.52616637	     -3.87984825	      2.82434999	    -11.21285942	     -6.95063504	     41.93359098	     41.93359098	      8.62771601	    -15.15705289	    -13.46044006	     -9.03371570	      6.79386613	      1.53871199	    -13.45984427	    -10.92054155	    -12.39695662	     21.12491281	     47.26678707	      0.00000000	      0.00000000	     17.49241462	    -16.11523936	    -12.37308652	     99.76447035	     48.54214297	      0.00000000	      0.00000000
     48.71171429	     -3.69041641	     -5.15564887	      0.60921540	      1.14893604	      0.91906760	      0.47364012	     23.26509979	      0.84757286	    -15.28245898	     21.95883825	     21.95883825	      4.94532110	     -2.06011575	     -4.08331033	      5.11372383	    -11.77125842	     -5.91187935	     46.26227029	     46.26227029	      6.67298886	    -16.75999741	    -11.92749170	     -9.10903854	      6.94128009	      1.82739178	    -11.88500735	    -11.04661314	    -12.24923533	     21.69313798	     47.24119603	      0.00000000	      0.00000000	     16.11920674	    -15.44871420	    -11.87545865	     99.20458184	     48.49541472	      0.00000000	      0.00000000
     48.72342857	     -3.69170304	     -5.13516074	      0.82316912	      1.14880100	      0.92067646	      0.47593652	     22.33310207	      0.92468915	    -15.81160500	     21.52175133	     21.52175133	      5.42394639	     -1.22503064	     -4.66165159	      7.81354148	    -11.82447539	     -4.57855189	     51.11804813	     51.11804813	      7.83455178	    -16.83537963	     -2.84943172	     -9.15260635	      6.86263129	      1.86710739	    -10.00589958	    -11.26287406	    -11.37338073	     22.28624936	     47.13261160	      0.00000000	      0.00000000	     14.51874553	    -14.89569817	    -11.53851622	     98.40510471	     48.47463135	      0.00000000	      0.00000000
     48.73514286	     -3.69509714	     -5.24867799	      1.06947157	      1.14853015	      0.92207441	      0.47817116	     21.35649733	      1.20580032	    -16.21752701	     20.93435636	     20.93435636	      5.80945400	     -0.74155520	     -5.05135277	     10.41845948	    -12.06499194	     -3.48196186	     55.31161266	     55.31161266	      7.72587702	    -17.28461459	      2.01556047	     -9.18306403	      6.94322643	      2.19704563	     -8.32819410	    -11.54055445	    -10.64122558	     23.19977464	     47.02094964	      0.00000000	      0.00000000	     13.21387520	    -14.21687185	    -10.78994967	     96.94812514	     48.41603497	      0.00000000	      0.00000000
     48.74685714	     -3.67785209	     -5.39146105	      1.30467433	      1.14815441	      0.92339654	      0.48032113	     20.35463041	      1.53924893	    -16.58916260	     20.30616284	     20.30616284	      6.13846639	     -0.29624958	     -5.24905750	     12.88588247	    -12.34126709	     -2.58925974	     58.89479708	     58.89479708	      6.89468075	    -17.84969282	      3.92594046	     -9.24460245	      7.06367748	      2.31969634	     -6.37528913	    -11.82995475	    -10.44090432	     24.17535115	     46.97117288	      0.00000000	      0.00000000	     11.75722490	    -13.78090640	    -10.09587705	     95.11514612	     48.33622929	      0.00000000	      0.00000000
     48.75857143	     -3.62006720	     -5.55228399	      1.49851471	      1.14766909	      0.92455029	      0.48242660	     19.38619197	      1.91571746	    -16.78269650	     19.79476629	     19.79476629	      6.51814372	     -0.02389937	     -5.34551012	     15.24000574	    -12.63020313	     -1.84452547	     62.00335421	     62.00335421	      6.03085807	    -18.29409162	      4.44288838	     -9.40193296	      7.14467590	      2.82147472	     -4.44520421	    -12.11280455	    -10.38512632	     24.96617754	     46.94880477	      0.00000000	      0.00000000	     10.40400038	    -12.89448649	     -9.40551947	     93.97924407	     48.26394044	      0.00000000	      0.00000000
     48.77028571	     -3.70306387	     -5.68441674	      1.76826194	      1.14691724	      0.92551885	      0.48413485	     18.45334725	      2.23706939	    -17.14470490	     19.00393706	     19.00393706	      6.60167495	      0.38614742	     -6.00010762	     18.00669863	    -12.62290120	     -0.82691575	     65.13232517	     65.13232517	      7.31844521	    -18.14684946	      9.80713955	     -9.31719465	      7.30578140	      3.47581594	     -2.85663941	    -12.53138980	     -9.90152852	     26.20950719	     46.84319974	      0.00000000	      0.00000000	      9.83342558	    -12.33131376	     -7.99140471	     90.12947861	     48.11282167	      0.00000000	      0.00000000
     48.78200000	     -3.68532141	     -5.85548571	      2.04271125	      1.14619874	      0.92647652	      0.48581249	     17.45802152	      2.63074601	    -17.36406962	     18.30330237	     18.30330237	      6.87820806	      0.60146374	     -6.04857723	     20.40280718	    -12.75527329	     -0.09252033	     67.38595929	     67.38595929	      7.06125165	    -18.33402623	      9.96624715	     -9.39091955	      7.44500296	      3.51451104	     -0.61308661	    -12.84983802	     -9.86759999	     27.29100775	     46.80885175	      0.00000000	      0.00000000	      8.36421032	    -11.89174113	     -7.28862004	     87.89394956	     48.01794938	      0.00000000	      0.00000000
     48.79371429	     -3.63334397	     -5.97918196	      2.31498978	      1.14536309	      0.92745998	      0.48733791	     16.42647521	      2.98214111	    -17.53788507	     17.56688820	     17.56688820	      7.01830807	      0.77098409	     -6.41491367	     22.72430941	    -12.75836968	      0.58502807	     69.18753220	     69.18753220	      7.37850129	    -18.36948554	     11.00505040	     -9.45357860	      7.55144631	      4.15967001	      1.33785002	    -13.31890378	     -9.63884019	     28.22931123	     46.75016909	      0.00000000	      0.00000000	      7.90037601	    -11.05859841	     -6.20618935	     83.66505061	     47.87482263	      0.00000000	      0.00000000
     48.80542857	     -3.62382414	     -6.15034275	      2.63602166	      1.14440657	      0.92826309	      0.48872488	     15.43891815	      3.38540991	    -17.73868593	     16.80824268	     16.80824268	      7.25563790	      0.91541008	     -6.42435220	     25.02594643	    -12.78974343	      1.21170367	     70.43774731	     70.43774731	      7.48157266	    -18.41598573	     10.95059405	     -9.51797870	      7.68255882	      4.07590450	      3.76106323	    -13.62836244	     -9.65434656	     29.37543349	     46.71899020	      0.00000000	      0.00000000	      6.45279652	    -10.72823618	     -5.46490635	     81.10233743	     47.77142803	      0.00000000	      0.00000000
     48.81714286	     -3.48623862	     -6.17747750	      2.92093083	      1.14344468	      0.92935320	      0.48992883	     14.27333882	      3.66670444	    -17.80861430	     15.96287605	     15.96287605	      7.37502098	      1.02816818	     -6.69636667	     27.00123731	    -12.62934631	      1.66058845	     71.06815729	     71.06815729	      7.80520545	    -18.41680451	     11.30285278	     -9.68779240	      7.70182861	      4.61122267	      5.99118415	    -14.10621051	     -9.49458622	     30.21513208	     46.67609971	      0.00000000	      0.00000000	      6.27583112	     -9.90339933	     -4.52164626	     75.81239825	     47.61590367	      0.00000000	      0.00000000
     48.82885714	     -3.45153733	     -6.26656487	      3.27119857	      1.14231743	      0.93012518	      0.49098534	     13.21689173	      4.00145852	    -17.95696708	     15.08675358	     15.08675358	      7.52701758	      1.16480205	     -6.75000930	     29.03824500	    -12.49275259	      2.10985249	     71.20446091	     71.20446091	      8.05560470	    -18.40736272	     11.32479707	     -9.77506920	      7.75846404	      4.48855747	      8.53540221	    -14.39325799	     -9.51491153	     31.43885081	     46.63853660	      0.00000000	      0.00000000	      5.21570943	     -9.56574341	     -3.70050593	     72.16744459	     47.49019202	      0.00000000	      0.00000000
     48.84057143	     -3.38740847	     -6.28423181	      3.58806630	      1.14114688	      0.93095826	      0.49189418	     12.14270307	      4.26265100	    -18.06921669	     14.22796301	     14.22796301	      7.61002096	      1.26335586	     -7.06443312	     30.83619587	    -12.25694217	      2.42183920	     70.72298435	     70.72298435	      8.31075183	    -18.39078849	     11.56810624	     -9.86077167	      7.75964608	      5.20756140	     10.65622683	    -14.99117082	     -9.47660216	     32.31283791	     46.59619688	      0.00000000	      0.00000000	      5.38825530	     -8.66731122	     -2.74756911	     66.26131682	     47.32485779	      0.00000000	      0.00000000
     48.85228571	     -3.31620945	     -6.28647980	      3.95197742	      1.13992927	      0.93168857	      0.49262908	     11.04592013	      4.50607669	    -18.19793229	     13.34940906	     13.34940906	      7.79652636	      1.41569424	     -7.02729651	     32.45915440	    -11.95980534	      2.69435389	     69.67964349	     69.67964349	      8.44661570	    -18.39992456	     11.66949022	    -10.03134685	      7.72122950	      4.78900559	     13.41639065	    -15.10041363	     -9.55771665	     33.75402115	     46.55705190	      0.00000000	      0.00000000	      4.05171378	     -8.51844194	     -2.10436689	     63.05525355	     47.21536364	      0.00000000	      0.00000000
